<svg width="18" height="15" viewBox="0 0 18 15" fill="none" xmlns="http://www.w3.org/2000/svg">
<path d="M8.70414 14.9255L8.6987 14.9226L8.67982 14.9124C8.66375 14.9037 8.64076 14.8911 8.61131 14.8746C8.55243 14.8418 8.4677 14.7937 8.3608 14.7308C8.14708 14.605 7.84431 14.4199 7.48212 14.1791C6.75895 13.6984 5.79268 12.9917 4.82383 12.0886C2.90651 10.3013 0.875 7.64592 0.875 4.375C0.875 1.93495 2.928 0 5.40625 0C6.86365 0 8.1686 0.665906 9 1.70966C9.8314 0.665906 11.1363 0 12.5938 0C15.072 0 17.125 1.93495 17.125 4.375C17.125 7.64592 15.0935 10.3013 13.1762 12.0886C12.2073 12.9917 11.241 13.6984 10.5179 14.1791C10.1557 14.4199 9.85292 14.605 9.6392 14.7308C9.5323 14.7937 9.44757 14.8418 9.38869 14.8746C9.35924 14.8911 9.33625 14.9037 9.32018 14.9124L9.3013 14.9226L9.29586 14.9255L9.29356 14.9268C9.11026 15.0241 8.88974 15.0241 8.70644 14.9268L8.70414 14.9255Z" fill="#FF5500"/>
</svg>
